<svg width="284" height="48" viewBox="0 0 284 48" fill="none" xmlns="http://www.w3.org/2000/svg">
<g clip-path="url(#clip0_1487_26276)">
<path d="M24.3776 0.000486866C15.9773 -0.159235 8.51109 4.0491 4.11719 10.5422C4.20022 10.6324 4.26942 10.7227 4.33169 10.806C4.38013 10.8616 4.42165 10.9172 4.45624 10.9588C4.48392 10.9588 4.50468 10.9658 4.51852 10.9727C4.8299 11.0283 5.30043 11.1116 5.70176 11.4797C5.95086 11.7088 6.11693 11.9658 6.2484 12.1672C6.30376 12.2574 6.37988 12.3755 6.41447 12.4102C6.48367 12.4797 6.58746 12.556 6.69817 12.6463C6.87808 12.7852 7.08567 12.938 7.28633 13.1463C7.4524 13.3199 7.60463 13.4866 7.74994 13.6602C7.85374 13.7852 7.95061 13.8963 8.04748 14.0005C8.1236 14.0838 8.22739 14.181 8.3381 14.2783C8.50417 14.4241 8.691 14.5977 8.87091 14.7991C9.09925 15.056 9.23072 15.3269 9.33452 15.5422C9.37603 15.6255 9.43831 15.7435 9.46599 15.7852C9.62514 15.9727 9.78429 16.1741 9.9296 16.3616L10.1649 16.6533C10.2064 16.7019 10.3033 16.7922 10.3932 16.8685C10.5731 17.0213 10.7945 17.2088 10.9883 17.4658C11.1336 17.6602 11.2581 17.8477 11.3758 18.0352C11.4657 18.1672 11.5418 18.2922 11.6249 18.4033C11.8117 18.6602 11.9293 18.9241 12.0193 19.1394C12.0677 19.2574 12.1231 19.3755 12.1646 19.431C12.2061 19.4866 12.2892 19.5838 12.386 19.6741C12.5383 19.8338 12.732 20.0283 12.8981 20.2783C13.0711 20.5422 13.1749 20.813 13.2579 21.0283C13.2925 21.1116 13.3271 21.2019 13.3548 21.2644C13.3824 21.2852 13.424 21.313 13.4586 21.3338C13.6731 21.4797 14.0052 21.7088 14.2405 22.0908C14.3719 22.306 14.4619 22.5213 14.5311 22.7019L14.9878 23.0144C15.7351 23.5213 16.0465 23.2574 15.6866 22.431L11.4796 12.806C11.1198 11.9797 11.2651 11.8894 11.8117 12.6116L18.0877 20.9449C18.6274 21.6672 19.008 21.5213 18.9319 20.6185L18.0531 10.1672C17.977 9.27132 18.15 9.2366 18.4337 10.0908L21.4714 19.9588C21.762 20.813 22.1357 20.7922 22.3086 19.9102L24.0039 9.7366C24.1769 8.84771 24.3568 8.8616 24.3914 9.76438L24.8204 20.1672C24.8619 21.0699 25.2564 21.1672 25.7061 20.3894L30.8889 11.3894C31.3386 10.6047 31.4978 10.6741 31.2418 11.5422L28.3079 21.4797C28.0519 22.3408 28.3978 22.563 29.0759 21.9727L36.8466 15.2019C37.5247 14.6116 37.6562 14.7297 37.1303 15.4658L32.6603 21.7644C32.8886 21.7644 33.117 21.7505 33.2969 21.6533C33.6636 21.4588 33.8712 20.9588 34.2448 20.7713C34.6185 20.5908 35.1098 20.6533 35.4904 20.4866C35.8709 20.3199 36.1339 19.8685 36.5144 19.7158C36.895 19.563 37.3033 19.4519 37.6838 19.306C38.1059 19.1533 38.4934 18.9102 38.9086 18.7713C39.3307 18.6324 39.7735 18.5699 40.1818 18.4449C40.59 18.3199 41.0883 18.4935 41.4896 18.3824C41.9255 18.2574 42.2646 17.7922 42.6867 17.681C43.1157 17.5699 43.5724 17.6394 43.9737 17.5422C44.4096 17.438 44.8594 17.4519 45.2677 17.3685C45.7105 17.2713 46.1049 17.0422 46.5063 16.9588C46.5824 16.9449 46.6654 16.938 46.7484 16.931C43.8007 7.29215 34.9645 0.20882 24.3776 0.000486866Z" fill="#EA5529"/>
<path d="M20.7523 46.4798C20.7523 46.4798 20.7592 46.4312 20.7661 46.4104C20.7523 46.3757 20.7315 46.3409 20.7107 46.3132C20.6 46.1118 20.4409 45.834 20.3648 45.4798C20.3371 45.3409 20.2956 45.1881 20.2402 45.0284C20.1849 44.8479 20.1226 44.6465 20.0741 44.4243C20.0119 44.1465 20.0049 43.8757 19.9911 43.6673C19.9911 43.5354 19.9842 43.4034 19.9634 43.334C19.9081 43.1048 19.8804 42.8965 19.8527 42.702C19.832 42.5423 19.8112 42.3895 19.7766 42.2645C19.7489 42.1604 19.7005 42.0284 19.6451 41.8895C19.569 41.702 19.486 41.4937 19.4237 41.2576L19.3614 41.0284L19.1538 40.2368C19.1192 40.1118 19.0639 39.9659 19.0085 39.8132C18.9463 39.6395 18.8701 39.452 18.8148 39.2437C18.711 38.8756 18.7179 38.5354 18.7317 38.2923C18.7317 38.2159 18.7317 38.1326 18.7317 38.084C18.6902 37.9382 18.628 37.7923 18.5657 37.6326C18.5034 37.4659 18.4342 37.2923 18.3719 37.1048C18.3581 37.0701 18.2958 36.9868 18.2474 36.9243C18.109 36.7368 17.9222 36.4729 17.8045 36.1326C17.7699 36.0354 17.7077 35.9034 17.6385 35.7715C17.5485 35.5909 17.4447 35.3895 17.3617 35.1534C17.2994 34.9729 17.2302 34.7854 17.1541 34.5979L16.988 34.1673C16.8358 33.7576 16.8635 33.3618 16.8842 33.1048C16.8842 33.0701 16.8842 33.0284 16.8912 32.9937C16.8496 32.9034 16.7943 32.8062 16.732 32.6951C16.6351 32.5145 16.5244 32.3132 16.4275 32.084C16.4068 32.0215 16.3238 31.9104 16.2546 31.8062C16.1369 31.6326 15.9916 31.4104 15.874 31.1395C15.7771 30.9173 15.7148 30.702 15.6526 30.5145C15.6041 30.3687 15.5626 30.2229 15.5211 30.1257C15.445 29.952 15.3758 29.7784 15.3135 29.6118C15.2443 29.4451 15.182 29.2854 15.1198 29.1465L14.9191 28.709C14.8291 28.5076 14.7461 28.3201 14.6631 28.1465C14.6354 28.077 14.5454 27.9729 14.4693 27.8687C14.3378 27.702 14.1856 27.4937 14.0541 27.2368C13.9088 26.959 13.8466 26.6812 13.7843 26.4659C13.7635 26.3965 13.7428 26.3062 13.7289 26.2507C13.6943 26.2229 13.6528 26.1882 13.6182 26.1534C13.4175 25.9937 13.1408 25.7715 12.947 25.4173C12.7533 25.077 12.6979 24.7298 12.6564 24.4798C12.6426 24.4104 12.6287 24.327 12.6218 24.2854C12.4972 24.0632 12.4073 23.8409 12.3381 23.6604C12.3035 23.5632 12.2689 23.4729 12.2343 23.4034C12.1997 23.3826 12.1582 23.3479 12.1236 23.327C11.9022 23.1812 11.5977 22.9729 11.3694 22.6118C11.2033 22.3548 11.1064 22.0979 11.0234 21.8965C10.9819 21.7923 10.9334 21.6604 10.8988 21.6187C10.8504 21.5493 10.7604 21.452 10.6636 21.3548C10.5113 21.202 10.3522 21.0284 10.193 20.8062C10.0201 20.5562 9.90934 20.3062 9.81939 20.1048C9.77095 20.0007 9.7156 19.8687 9.68792 19.827C9.56337 19.6534 9.45265 19.4868 9.3627 19.334C9.26583 19.1882 9.17587 19.0423 9.09284 18.9312C9.05132 18.8757 8.94061 18.7854 8.84373 18.6951C8.68459 18.5562 8.48392 18.3826 8.30401 18.1604L8.05491 17.8479C7.9096 17.6673 7.77813 17.4937 7.63974 17.334C7.42523 17.077 7.29376 16.8132 7.19689 16.6048C7.15537 16.5284 7.10693 16.4243 7.07925 16.3895C6.98238 16.2854 6.86475 16.1812 6.7402 16.0632C6.60181 15.9382 6.44958 15.7993 6.29735 15.6395C6.16588 15.5007 6.05516 15.3687 5.93753 15.2368C5.81298 15.0909 5.68843 14.952 5.57772 14.834C5.49468 14.7507 5.37013 14.6604 5.24558 14.5562C5.09335 14.4382 4.92728 14.3062 4.75429 14.1465C4.51211 13.9104 4.35988 13.6673 4.22841 13.4659C4.20073 13.4243 4.17305 13.3826 4.15229 13.3479C4.12461 13.3479 4.10385 13.3409 4.0831 13.334C3.79939 13.2784 3.36346 13.202 2.99673 12.8895C2.92753 12.827 2.86526 12.7715 2.80298 12.709C1.09386 15.9382 0.083605 19.6187 0.000570634 23.5354C-0.234694 35.8687 8.8299 46.1951 20.7315 47.7854C20.7107 47.702 20.69 47.6187 20.6692 47.5354C20.5931 47.1048 20.6831 46.7298 20.7453 46.4798H20.7523Z" fill="#00A161"/>
<path d="M18.6482 31.1736C18.6897 31.2708 18.7589 31.3889 18.8281 31.5278C18.9388 31.7222 19.0565 31.9375 19.1603 32.1944C19.3194 32.6111 19.2917 33.0069 19.271 33.2708C19.271 33.3125 19.2641 33.3611 19.2641 33.4028L19.3886 33.7222C19.4647 33.9236 19.5478 34.1319 19.6239 34.3472C19.6585 34.4375 19.7207 34.5556 19.783 34.6875C19.8799 34.8819 19.9906 35.0972 20.0806 35.3611C20.0736 35.3472 20.0667 35.3333 20.0667 35.3333C20.0875 35.3611 20.1498 35.4514 20.1913 35.5139C20.3366 35.7153 20.5303 35.9861 20.648 36.3472C20.6895 36.4792 20.7448 36.6181 20.8002 36.7708C20.8763 36.9722 20.9593 37.1806 21.0285 37.4097C21.1392 37.7778 21.1254 38.125 21.1185 38.3819C21.1185 38.4514 21.1185 38.5486 21.1185 38.5903C21.1531 38.7014 21.2015 38.8264 21.25 38.9583C21.3192 39.1458 21.4022 39.3542 21.4645 39.5903L21.679 40.4097L21.7412 40.6458C21.7689 40.7431 21.8104 40.8681 21.8658 41C21.9419 41.2014 22.0319 41.4236 22.1011 41.6875C22.1564 41.9236 22.191 42.1528 22.2256 42.3542C22.2464 42.5069 22.2671 42.6597 22.3017 42.7778C22.3709 43.0694 22.3778 43.3403 22.3848 43.5556C22.3848 43.6875 22.3986 43.8194 22.4124 43.8889C22.4401 44.0139 22.4886 44.1597 22.5301 44.3056C22.5854 44.4931 22.6477 44.7083 22.7031 44.9306C22.7169 44.9653 22.7584 45.0417 22.793 45.1042C22.9106 45.3125 23.0767 45.5972 23.1459 45.9653C23.2359 46.3958 23.139 46.7778 23.0767 47.0278C23.0629 47.0625 23.056 47.1042 23.049 47.1458C23.0698 47.2222 23.0975 47.3125 23.1321 47.4167C23.1874 47.5833 23.2428 47.7639 23.2843 47.9653C23.3466 47.9653 23.395 47.9722 23.4504 47.9722C30.5221 48.1111 36.9296 45.1528 41.3996 40.3472C33.1031 33.9444 22.9106 31.7014 18.5859 31C18.6136 31.0486 18.6344 31.1042 18.6551 31.1528L18.6482 31.1736Z" fill="#004EA2"/>
<path d="M47.6892 24.4727C47.7238 22.6532 47.5508 20.8754 47.198 19.1602C47.0526 19.1879 46.9004 19.2088 46.7551 19.2365C46.3468 19.3129 45.9801 19.5768 45.5926 19.6532C45.1913 19.7365 44.8107 19.8615 44.4232 19.9449C44.0011 20.0421 43.5721 20.056 43.1708 20.1671C42.7625 20.2713 42.3197 20.2365 41.9253 20.3477C41.5239 20.4657 41.1918 20.7782 40.8181 20.8963C40.403 21.0282 39.9601 21.0629 39.5726 21.2018C39.1713 21.3407 38.7146 21.3268 38.334 21.4727C37.9535 21.6254 37.6352 21.9379 37.2753 22.0907C36.8809 22.2643 36.4381 22.3129 36.0713 22.4865C35.6631 22.681 35.3656 23.049 34.9988 23.2435C34.6182 23.4449 34.2377 23.6046 33.8986 23.806C33.525 24.0282 33.1167 24.1602 32.7776 24.3754C32.4109 24.6115 32.1549 24.9796 31.8297 25.2018C31.4629 25.4657 31.1861 25.806 30.8748 26.049C30.515 26.3407 30.0859 26.4727 29.8092 26.7296C29.5255 26.9865 29.221 27.1602 28.9857 27.3546L28.4529 28.2157C28.3422 28.6185 28.3422 28.924 28.1692 28.674L27.0137 30.5352C31.8573 32.0213 37.6628 34.4727 42.8179 38.5074C45.7794 34.5977 47.5785 29.7504 47.6823 24.4657L47.6892 24.4727Z" fill="#F6AB00"/>
</g>
<path d="M63.221 10.2938H57.3932V7.47711H66.6384V8.95173H69.1148V7.26172H72.5818V17.8988H69.1148V15.894H66.1101V13.1271H69.1148V11.7187H66.4073C65.5488 15.6124 62.5111 17.584 56.9805 17.932V15.0656C61.2399 14.7011 63.1384 13.1768 63.221 10.2938ZM58.2352 22.157C58.2352 20.9641 58.7965 20.0528 59.688 19.4232C61.0583 18.4456 63.2045 18.048 65.6313 18.048C68.0582 18.048 70.2044 18.4456 71.5582 19.4232C72.4662 20.0528 73.0275 20.9806 73.0275 22.157C73.0275 23.3334 72.4662 24.2778 71.5582 24.924C70.2044 25.9181 68.0417 26.2992 65.6313 26.2992C63.221 26.2992 61.0583 25.9181 59.688 24.924C58.7965 24.2944 58.2352 23.3665 58.2352 22.157ZM61.6361 22.157C61.6361 22.4884 61.8177 22.7369 62.1149 22.9523C62.7422 23.35 64.0134 23.5156 65.6148 23.5156C67.2162 23.5156 68.4709 23.35 69.0983 22.9523C69.412 22.7369 69.5606 22.4884 69.5606 22.157C69.5606 21.8422 69.4285 21.6268 69.0983 21.3948C68.4709 20.9972 67.2162 20.8149 65.6148 20.8149C64.0134 20.8149 62.7422 20.9972 62.1149 21.3948C61.8177 21.6102 61.6361 21.8256 61.6361 22.157Z" fill="#5B2A8C"/>
<path d="M83.2472 16.6728H75.4053V7.3777H78.8557V13.8561H83.726C85.3109 13.8561 86.2189 13.6738 86.8957 13.1933V7.26172H90.3627V11.0891H92.8061V13.9721H90.3627V17.6669H86.8957V15.9106C86.2189 16.4242 85.0797 16.6728 83.2472 16.6728ZM90.3462 26.0672H76.3628V18.3959H90.3462V26.0672ZM86.9123 23.3334V21.1629H79.7802V23.3334H86.9123Z" fill="#5B2A8C"/>
<path d="M115.011 25.1076H98.4521V22.2247H115.011V25.1076ZM106.723 14.7025C105.304 16.5747 102.167 18.2316 98.8484 18.6955V15.7795C102.745 14.9179 104.99 12.8799 104.99 8.78745V7.47852H108.457V8.77088C108.457 12.7805 110.653 14.8847 114.631 15.7629V18.679C111.395 18.2151 108.16 16.5582 106.723 14.6859V14.7025Z" fill="#5B2A8C"/>
<path d="M126.617 7.57652V24.692H117.157V7.57652H126.617ZM120.558 21.8422H123.216V10.4595H120.558V21.8422ZM128.417 7.26172H131.884V14.436H134.442V17.3355H131.884V25.885H128.417V7.26172Z" fill="#5B2A8C"/>
<path d="M151.464 25.1078H134.905V22.2249H151.464V25.1078ZM150.573 7.57812V10.4445H139.264V12.3665H150.374V15.1832H139.264V17.1549H150.787V19.9881H135.797V7.57812H150.573Z" fill="#5B2A8C"/>
<path d="M158.365 21.3451C157.457 23.002 155.294 24.3606 152.999 24.808V21.7925C155.162 20.9144 156.648 19.4232 156.648 14.2372V7.47711H160.115V14.2372C160.115 19.4232 161.567 20.8812 163.747 21.7925V24.808C161.468 24.3938 159.388 22.9854 158.381 21.3451H158.365ZM165.298 7.26172H168.765V25.885H165.298V7.26172Z" fill="#5B2A8C"/>
<path d="M181.196 17.5012H175.369V21.8588H180.47C181.972 21.8588 182.897 21.6599 183.524 21.0966V7.26172H186.991V25.885H183.524V23.8305C182.897 24.4435 181.807 24.692 180.074 24.692H171.935V7.57652H181.394V10.4595H175.352V14.6514H181.18V17.4846L181.196 17.5012Z" fill="#5B2A8C"/>
<path d="M200.117 24.692H195.131V7.57652H202.098V10.4098H198.235V21.8753H200.216C201.206 21.8753 202.081 21.8422 202.725 21.6599V24.3441C202.065 24.576 201.14 24.6755 200.117 24.6755V24.692ZM203.633 17.1698H200.612V14.2537H203.633V7.3777H206.638V25.7027H203.633V17.1698ZM210.551 7.26172V25.885H207.48V7.26172H210.551Z" fill="#D74464"/>
<path d="M213.191 16.126C213.191 12.4477 213.654 9.96242 214.925 8.58722C215.717 7.70907 216.823 7.27829 218.21 7.27829C219.597 7.27829 220.72 7.70907 221.496 8.58722C222.767 9.96242 223.246 12.4477 223.246 16.126C223.246 19.8042 222.767 22.3227 221.496 23.6979C220.72 24.5595 219.597 24.9737 218.21 24.9737C216.823 24.9737 215.717 24.5595 214.925 23.6979C213.637 22.3227 213.191 19.8374 213.191 16.126ZM219.845 16.126C219.845 13.0111 219.63 11.3045 219.118 10.5755C218.887 10.2938 218.557 10.1612 218.227 10.1612C217.864 10.1612 217.55 10.2938 217.335 10.5755C216.823 11.2879 216.625 12.9945 216.625 16.126C216.625 19.2575 216.823 21.0138 217.335 21.7097C217.55 21.9913 217.864 22.1073 218.227 22.1073C218.557 22.1073 218.887 21.9913 219.118 21.7097C219.63 21.0138 219.845 19.2906 219.845 16.126ZM225.045 7.26172H228.512V25.885H225.045V7.26172Z" fill="#D74464"/>
<path d="M235.099 14.6514H240.002V17.4846H235.099V21.8422H238.781C240.184 21.8422 241.257 21.7594 242.083 21.5108V24.2281C241.257 24.5595 240.118 24.692 238.682 24.692H231.698V7.57652H240.844V10.4595H235.099V14.6514ZM243.271 7.26172H246.738V25.885H243.271V17.2527H240.663V14.3366H243.271V7.26172Z" fill="#D74464"/>
<path d="M262.422 15.5808H265.311V18.4472H259.368V22.258H265.906V25.1078H249.347V22.258H255.901V18.4472H249.941V15.5808H252.45V10.4611H250.238V7.57812H265.014V10.4611H262.769V12.8636C262.769 13.8742 262.67 14.9181 262.406 15.5808H262.422ZM259.351 10.4611H255.901V15.5808H259.021C259.236 14.9678 259.335 13.9571 259.335 13.0127V10.4445L259.351 10.4611Z" fill="#D74464"/>
<path d="M276.736 13.2099H271.354V14.2206H275.564C276.687 14.2206 277.694 14.2206 278.569 13.9886V16.2917C277.71 16.5733 276.654 16.6231 275.465 16.6231H268.02V7.47711H277.133V9.86301H271.354V10.824H276.736V13.2099ZM283.225 23.0186H272.494V23.7476H283.423V26.0507H269.076V20.6658H279.791V19.9534H269.076V17.584H283.241V23.002L283.225 23.0186ZM279.758 13.243H277.347V10.3435H279.758V7.26172H283.225V16.971H279.758V13.243Z" fill="#D74464"/>
<path d="M58.3347 36.6546C58.3347 39.289 59.0281 40.7802 61.0422 40.7802C62.6767 40.7802 63.6837 39.7198 63.6837 37.7647V37.3174H61.1083V36.638H64.4266V41.3104H63.8488L63.7333 39.9186C63.3535 40.8465 62.429 41.4761 61.0257 41.4761C58.3842 41.4761 57.5918 39.405 57.5918 36.6712C57.5918 33.9373 58.3842 31.8828 61.0587 31.8828C63.1224 31.8828 64.2946 33.142 64.4266 35.064H63.6507C63.5351 33.5397 62.6767 32.5621 61.0587 32.5621C59.0281 32.5621 58.3512 34.103 58.3512 36.6712L58.3347 36.6546Z" fill="#5B2A8C"/>
<path d="M65.7463 32.0332L68.5529 36.921L71.3594 32.0332H72.1849L68.9161 37.6666V41.3283H68.1566V37.6666L64.9043 32.0332H65.7298H65.7463Z" fill="#5B2A8C"/>
<path d="M73.375 32.0332H78.6084V32.7291H74.1344V36.2251H78.1297V36.921H74.1344V40.6489H78.6745V41.3283H73.375V32.0498V32.0332Z" fill="#5B2A8C"/>
<path d="M85.9547 40.3816C85.3934 41.094 84.5514 41.4751 83.4123 41.4751C82.2731 41.4751 81.4312 41.094 80.8698 40.3816C80.1764 39.5034 79.9453 38.2111 79.9453 36.6702C79.9453 35.1293 80.1764 33.8535 80.8698 32.9588C81.4312 32.2629 82.2566 31.8652 83.4123 31.8652C84.5679 31.8652 85.3934 32.2629 85.9547 32.9588C86.6481 33.8369 86.8792 35.1458 86.8792 36.6702C86.8792 38.1945 86.6481 39.5034 85.9547 40.3816ZM85.3439 33.373C84.8981 32.8428 84.2542 32.5446 83.3958 32.5446C82.5373 32.5446 81.8769 32.8428 81.4477 33.373C80.8698 34.102 80.6882 35.1624 80.6882 36.6536C80.6882 38.1448 80.8863 39.2218 81.4477 39.9508C81.8769 40.481 82.5373 40.7792 83.3958 40.7792C84.2542 40.7792 84.8981 40.481 85.3439 39.9508C85.9052 39.2218 86.1033 38.1614 86.1033 36.6536C86.1033 35.1458 85.9052 34.102 85.3439 33.373Z" fill="#5B2A8C"/>
<path d="M94.1107 41.3117L89.3395 33.4415V41.3117H88.5801V32.0332H89.3395L94.1107 39.9034V32.0332H94.8701V41.3117H94.1107Z" fill="#5B2A8C"/>
<path d="M97.3298 36.6546C97.3298 39.289 98.0232 40.7802 100.037 40.7802C101.672 40.7802 102.679 39.7198 102.679 37.7647V37.3174H100.103V36.638H103.422V41.3104H102.844L102.728 39.9186C102.349 40.8465 101.424 41.4761 100.021 41.4761C97.3794 41.4761 96.5869 39.405 96.5869 36.6712C96.5869 33.9373 97.3794 31.8828 100.054 31.8828C102.118 31.8828 103.29 33.142 103.422 35.064H102.646C102.53 33.5397 101.672 32.5621 100.054 32.5621C98.0232 32.5621 97.3463 34.103 97.3463 36.6712L97.3298 36.6546Z" fill="#5B2A8C"/>
<path d="M110.818 41.3117L106.047 33.4415V41.3117H105.287V32.0332H106.047L110.818 39.9034V32.0332H111.577V41.3117H110.818Z" fill="#5B2A8C"/>
<path d="M116.909 32.0332L120.261 41.3117H119.452L118.626 38.9921H114.334L113.525 41.3117H112.716L116.067 32.0332H116.909ZM114.581 38.3293H118.395L116.496 32.9113L114.581 38.3293Z" fill="#5B2A8C"/>
<path d="M125.445 41.3117L122.16 33.6901V41.3117H121.4V32.0332H122.242L125.874 40.4501L129.49 32.0332H130.332V41.3117H129.572V33.6901L126.287 41.3117H125.445Z" fill="#5B2A8C"/>
<path d="M138.553 41.4595C136.556 41.4595 135.482 40.3162 135.482 38.8748V38.5931H136.242V38.8748C136.242 39.9683 137.084 40.7802 138.553 40.7802C140.022 40.7802 140.864 39.9683 140.864 38.8748C140.864 37.8806 140.303 37.251 138.933 36.9693L137.744 36.7208C136.291 36.4226 135.482 35.6438 135.482 34.3184C135.482 32.9929 136.489 31.8496 138.372 31.8496C140.254 31.8496 141.277 32.9597 141.277 34.3184V34.5172H140.518V34.3184C140.518 33.258 139.742 32.5455 138.372 32.5455C137.001 32.5455 136.242 33.258 136.242 34.3184C136.242 35.2793 136.836 35.8261 137.959 36.0581L139.147 36.3066C140.848 36.6545 141.624 37.5161 141.624 38.8748C141.624 40.3162 140.551 41.4595 138.553 41.4595Z" fill="#5B2A8C"/>
<path d="M147.237 41.3117L143.952 33.6901V41.3117H143.192V32.0332H144.034L147.666 40.4501L151.282 32.0332H152.124V41.3117H151.364V33.6901L148.079 41.3117H147.237Z" fill="#5B2A8C"/>
<path d="M157.473 32.0332L160.824 41.3117H160.015L159.19 38.9921H154.897L154.088 41.3117H153.279L156.631 32.0332H157.473ZM155.128 38.3293H158.942L157.043 32.9113L155.128 38.3293Z" fill="#5B2A8C"/>
<path d="M167.511 41.3107C167.428 41.1119 167.395 40.8137 167.362 40.4823L167.263 39.1734C167.181 38.0301 166.685 37.5496 165.216 37.5496H162.707V41.3273H161.947V32.0488H165.365C167.313 32.0488 168.221 33.0927 168.221 34.7661C168.221 36.0253 167.692 36.8869 166.57 37.2183C167.494 37.4005 167.94 37.9639 168.039 39.1734L168.122 40.4823C168.155 40.8468 168.204 41.1119 168.287 41.3273H167.494L167.511 41.3107ZM165.299 36.8372C166.718 36.8372 167.461 36.1247 167.461 34.7827C167.461 33.4406 166.718 32.7116 165.299 32.7116H162.723V36.8372H165.299Z" fill="#5B2A8C"/>
<path d="M168.864 32.0332H175.204V32.7291H172.414V41.3117H171.654V32.7291H168.864V32.0332Z" fill="#5B2A8C"/>
<path d="M180.47 40.3816C179.761 39.5034 179.546 38.2111 179.546 36.6702C179.546 35.1293 179.777 33.8535 180.47 32.9588C181.015 32.2629 181.857 31.8652 183.013 31.8652C185.077 31.8652 186.249 33.1245 186.381 35.0464H185.605C185.489 33.5221 184.631 32.5446 183.013 32.5446C182.171 32.5446 181.511 32.8428 181.081 33.373C180.503 34.102 180.305 35.1624 180.305 36.6536C180.305 38.1448 180.503 39.2218 181.081 39.9508C181.511 40.481 182.171 40.7792 183.013 40.7792C184.631 40.7792 185.489 39.8182 185.605 38.2773H186.381C186.249 40.2159 185.077 41.4585 183.013 41.4585C181.874 41.4585 181.032 41.0774 180.47 40.365V40.3816Z" fill="#5B2A8C"/>
<path d="M188.775 41.3117H188.016V32.0332H188.775V41.3117Z" fill="#5B2A8C"/>
<path d="M189.963 32.0332H196.302V32.7291H193.512V41.3117H192.753V32.7291H189.963V32.0332Z" fill="#5B2A8C"/>
<path d="M197.525 32.0332L200.331 36.921L203.138 32.0332H203.963L200.694 37.6666V41.3283H199.935V37.6666L196.683 32.0332H197.508H197.525Z" fill="#5B2A8C"/>
<path d="M208.619 41.3117V32.0332H211.772C214.48 32.0332 215.206 34.154 215.206 36.6724C215.206 39.1909 214.496 41.3283 211.772 41.3283H208.619V41.3117ZM211.69 32.7125H209.362V40.6158H211.69C213.836 40.6158 214.43 39.0086 214.43 36.6559C214.43 34.3031 213.836 32.7125 211.69 32.7125Z" fill="#5B2A8C"/>
<path d="M220.06 32.0332L223.411 41.3117H222.602L221.777 38.9921H217.484L216.675 41.3117H215.866L219.218 32.0332H220.06ZM217.732 38.3293H221.545L219.647 32.9113L217.732 38.3293Z" fill="#5B2A8C"/>
<path d="M223.047 32.0332H229.386V32.7291H226.596V41.3117H225.837V32.7291H223.047V32.0332Z" fill="#5B2A8C"/>
<path d="M233.185 32.0332L236.536 41.3117H235.727L234.902 38.9921H230.609L229.8 41.3117H228.991L232.343 32.0332H233.185ZM230.857 38.3293H234.67L232.772 32.9113L230.857 38.3293Z" fill="#5B2A8C"/>
<path d="M241.884 37.6831V41.3117H241.125V32.0332H244.526C246.424 32.0332 247.399 33.1267 247.399 34.8665C247.399 36.6062 246.408 37.6997 244.526 37.6997H241.901L241.884 37.6831ZM244.443 37.0038C245.896 37.0038 246.639 36.192 246.639 34.8499C246.639 33.5078 245.896 32.7125 244.443 32.7125H241.884V37.0038H244.443Z" fill="#5B2A8C"/>
<path d="M254.546 40.3816C253.985 41.094 253.143 41.4751 252.004 41.4751C250.865 41.4751 250.023 41.094 249.462 40.3816C248.768 39.5034 248.537 38.2111 248.537 36.6702C248.537 35.1293 248.768 33.8535 249.462 32.9588C250.023 32.2629 250.848 31.8652 252.004 31.8652C253.16 31.8652 253.985 32.2629 254.546 32.9588C255.24 33.8369 255.471 35.1458 255.471 36.6702C255.471 38.1945 255.24 39.5034 254.546 40.3816ZM253.936 33.373C253.49 32.8428 252.846 32.5446 251.988 32.5446C251.129 32.5446 250.469 32.8428 250.039 33.373C249.462 34.102 249.28 35.1624 249.28 36.6536C249.28 38.1448 249.478 39.2218 250.039 39.9508C250.469 40.481 251.129 40.7792 251.988 40.7792C252.846 40.7792 253.49 40.481 253.936 39.9508C254.497 39.2218 254.695 38.1614 254.695 36.6536C254.695 35.1458 254.497 34.102 253.936 33.373Z" fill="#5B2A8C"/>
<path d="M262.72 41.3107C262.637 41.1119 262.604 40.8137 262.571 40.4823L262.472 39.1734C262.39 38.0301 261.894 37.5496 260.425 37.5496H257.916V41.3273H257.156V32.0488H260.574C262.522 32.0488 263.43 33.0927 263.43 34.7661C263.43 36.0253 262.901 36.8869 261.779 37.2183C262.703 37.4005 263.149 37.9639 263.248 39.1734L263.331 40.4823C263.364 40.8468 263.413 41.1119 263.496 41.3273H262.703L262.72 41.3107ZM260.508 36.8372C261.927 36.8372 262.67 36.1247 262.67 34.7827C262.67 33.4406 261.927 32.7116 260.508 32.7116H257.932V36.8372H260.508Z" fill="#5B2A8C"/>
<path d="M264.073 32.0332H270.413V32.7291H267.623V41.3117H266.863V32.7291H264.073V32.0332Z" fill="#5B2A8C"/>
<path d="M274.21 32.0332L277.561 41.3117H276.752L275.927 38.9921H271.635L270.826 41.3117H270.017L273.368 32.0332H274.21ZM271.882 38.3293H275.696L273.797 32.9113L271.882 38.3293Z" fill="#5B2A8C"/>
<path d="M278.7 32.0332H279.46V40.6324H284V41.3117H278.7V32.0332Z" fill="#5B2A8C"/>
<defs>
<clipPath id="clip0_1487_26276">
<rect width="47.6964" height="48" fill="white"/>
</clipPath>
</defs>
</svg>
