<svg width="284" height="48" viewBox="0 0 284 48" fill="none" xmlns="http://www.w3.org/2000/svg">
<g clip-path="url(#clip0_130_24)">
<path d="M24.4669 0.00466778C16.0357 -0.160075 8.53813 4.04909 4.13304 10.5446C4.21306 10.6382 4.28601 10.7282 4.34956 10.8094C4.39663 10.8641 4.43899 10.92 4.47782 10.9647C4.50312 10.9671 4.52372 10.9724 4.54196 10.9777C4.85615 11.0342 5.32566 11.1195 5.72987 11.4854C5.98286 11.7149 6.14584 11.9708 6.27822 12.175C6.33411 12.2627 6.41178 12.3839 6.44708 12.4186C6.51533 12.4863 6.62124 12.5657 6.73362 12.6516C6.91424 12.7898 7.12135 12.9458 7.3214 13.1505C7.48967 13.3211 7.64264 13.4941 7.78973 13.6624C7.89152 13.7848 7.98978 13.896 8.0898 14.0025C8.16629 14.0866 8.27278 14.1801 8.38339 14.2808C8.54931 14.4284 8.73524 14.5973 8.91528 14.8021C9.14651 15.0592 9.2783 15.331 9.38244 15.5487C9.42597 15.6293 9.48717 15.7517 9.51188 15.7887V15.7864C9.67427 15.977 9.8296 16.1747 9.97904 16.3642L10.2132 16.6589C10.2544 16.709 10.3538 16.796 10.4456 16.8713C10.6233 17.0237 10.8451 17.2114 11.0393 17.4691C11.1887 17.6633 11.3093 17.8504 11.4252 18.0357C11.5141 18.1681 11.5941 18.2928 11.6735 18.404C11.8606 18.6605 11.9765 18.9235 12.0719 19.1371C12.1225 19.253 12.1731 19.3754 12.216 19.4325C12.2578 19.4902 12.3449 19.5819 12.4372 19.6761C12.5926 19.8343 12.782 20.0309 12.9515 20.2827C13.1292 20.5463 13.2321 20.8151 13.3157 21.0305C13.3474 21.1158 13.3833 21.2023 13.4121 21.2664C13.4427 21.2888 13.4839 21.3153 13.5181 21.3388C13.7357 21.4859 14.07 21.7106 14.3041 22.0931C14.4347 22.3072 14.5236 22.5214 14.5948 22.7038L15.0543 23.0156C15.8027 23.5199 16.1169 23.258 15.7539 22.4326L11.53 12.8057C11.1687 11.9785 11.3164 11.8914 11.8606 12.611L18.1585 20.9422C18.7039 21.6618 19.0846 21.5159 19.0081 20.6169L18.1226 10.1669C18.0473 9.26788 18.2185 9.23375 18.5027 10.0886L21.5487 19.9532C21.837 20.8104 22.2147 20.7875 22.3906 19.9026L24.0945 9.72857C24.2716 8.84014 24.447 8.85544 24.4864 9.75681L24.9206 20.1603C24.9594 21.0628 25.356 21.1593 25.8084 20.3803L31.0072 11.3784C31.4579 10.5964 31.6191 10.6647 31.3614 11.5313L28.4172 21.4688C28.1601 22.3331 28.5084 22.5555 29.1898 21.9648L36.9891 15.1951C37.6687 14.6032 37.8011 14.722 37.2768 15.4563L32.7888 21.7518C33.0165 21.7453 33.2459 21.7371 33.4242 21.6383C33.789 21.4418 34.002 20.9422 34.3774 20.7581C34.7545 20.578 35.2458 20.641 35.6294 20.4727C36.0089 20.3039 36.2749 19.8543 36.6585 19.699C37.0439 19.5449 37.4475 19.4331 37.8311 19.293C38.2541 19.1371 38.6466 18.8953 39.0625 18.7553C39.4832 18.6164 39.9274 18.5535 40.3405 18.4276C40.75 18.2999 41.2507 18.4781 41.6537 18.3634C42.0926 18.2404 42.4286 17.7715 42.8528 17.6633C43.2811 17.5521 43.7424 17.6186 44.146 17.5227C44.5861 17.4185 45.0362 17.4332 45.4469 17.3462C45.8917 17.2497 46.2853 17.0167 46.6883 16.9396C46.7666 16.9231 46.8484 16.9172 46.929 16.9143C43.9583 7.29274 35.0893 0.211184 24.4669 0.00466778Z" fill="#F15A39"/>
<path d="M20.828 46.479C20.8292 46.4554 20.8374 46.4313 20.8433 46.4095C20.8268 46.3778 20.8062 46.3407 20.7868 46.3107C20.6738 46.1077 20.5144 45.8312 20.4379 45.477C20.4103 45.3411 20.3655 45.1875 20.3149 45.0239C20.2585 44.8439 20.1967 44.6391 20.1461 44.4226C20.0831 44.1414 20.0755 43.8772 20.0643 43.666C20.0602 43.5354 20.0555 43.4012 20.039 43.3359C19.9855 43.1094 19.9537 42.8982 19.9249 42.7064C19.9025 42.5475 19.8813 42.3939 19.8507 42.2722C19.8242 42.1662 19.7713 42.0356 19.7154 41.895C19.6419 41.7109 19.5548 41.5002 19.4942 41.2596L19.4318 41.0283L19.2229 40.237C19.1871 40.1111 19.1335 39.9675 19.0764 39.8169C19.0111 39.6445 18.9388 39.4527 18.8799 39.2456C18.7723 38.8802 18.7852 38.5384 18.7952 38.2936C18.7987 38.2195 18.8011 38.1318 18.7993 38.0877C18.7546 37.9453 18.6969 37.7941 18.6352 37.6341C18.5699 37.4658 18.5028 37.294 18.4434 37.1057C18.4269 37.071 18.3645 36.988 18.3198 36.9233C18.1804 36.7321 17.9903 36.4714 17.8744 36.129C17.8426 36.0325 17.7803 35.9037 17.7102 35.7695C17.6202 35.5907 17.5149 35.3871 17.4343 35.1535C17.369 34.9699 17.299 34.787 17.2237 34.5957L17.0589 34.1645C16.906 33.7544 16.9342 33.3608 16.9519 33.1036C16.956 33.0695 16.9577 33.0277 16.9595 32.9919C16.9183 32.9042 16.8654 32.803 16.8024 32.6942C16.7065 32.5153 16.5924 32.3146 16.497 32.0834C16.4735 32.0205 16.3947 31.9099 16.3253 31.8034C16.207 31.6263 16.0581 31.4074 15.9457 31.1385C15.8516 30.9155 15.7851 30.7025 15.7263 30.5148C15.681 30.366 15.6386 30.2248 15.5951 30.1265C15.5174 29.9494 15.4509 29.7782 15.3856 29.6129C15.318 29.4452 15.2538 29.2869 15.1885 29.1469L14.9897 28.7091C14.9026 28.5115 14.8179 28.3226 14.7302 28.1431C14.6996 28.0767 14.6149 27.9684 14.5337 27.8631C14.4036 27.6972 14.246 27.4907 14.1153 27.2341C13.9724 26.9529 13.9041 26.6793 13.8471 26.4628C13.8288 26.3928 13.807 26.3057 13.7906 26.2486C13.757 26.2192 13.7153 26.1856 13.68 26.1551C13.4793 25.995 13.204 25.7726 13.008 25.4184C12.8139 25.0748 12.7586 24.7283 12.7156 24.48C12.705 24.4129 12.6915 24.3276 12.6797 24.2882C12.5521 24.0634 12.4662 23.8422 12.3961 23.661C12.3603 23.5663 12.3249 23.4715 12.2908 23.4015C12.2579 23.3774 12.2161 23.3491 12.1814 23.325C11.956 23.1762 11.6507 22.9714 11.4253 22.6119C11.2588 22.3572 11.1612 22.1012 11.0811 21.8935C11.0394 21.79 10.9905 21.6599 10.9588 21.6158C10.9129 21.5446 10.8199 21.4511 10.7211 21.3487C10.5716 21.1969 10.4063 21.0233 10.2516 20.8027C10.0786 20.5521 9.96737 20.3008 9.87735 20.1002C9.82969 19.9949 9.7732 19.8643 9.74201 19.8201C9.61552 19.6477 9.50786 19.4801 9.41254 19.3288C9.31664 19.1794 9.22426 19.0382 9.13894 18.927C9.09482 18.8699 8.98891 18.7805 8.88713 18.694C8.72768 18.5551 8.52587 18.3833 8.34701 18.1604L8.0993 17.8497C7.95515 17.6661 7.81983 17.4937 7.68333 17.3325C7.46622 17.0766 7.3362 16.8148 7.23677 16.6018C7.19852 16.5265 7.14616 16.4217 7.12145 16.3876C7.02731 16.2841 6.90787 16.1758 6.78137 16.0622C6.64605 15.9393 6.49189 15.7981 6.33892 15.6386C6.20948 15.4986 6.09357 15.3668 5.97884 15.235C5.85175 15.0873 5.73173 14.9473 5.61758 14.8326C5.53404 14.7478 5.4093 14.6566 5.28104 14.5554C5.12865 14.4389 4.95802 14.3089 4.78739 14.1471C4.54616 13.9141 4.38907 13.6652 4.25963 13.4681C4.23433 13.4293 4.2055 13.3863 4.18255 13.3469C4.15667 13.3416 4.13313 13.3381 4.11136 13.3328C3.82483 13.2804 3.39003 13.2016 3.02054 12.8851C2.9517 12.8256 2.88698 12.765 2.82638 12.7068C1.09894 15.9393 0.0816485 19.6177 0.00457266 23.5345C-0.233715 35.8648 8.86888 46.1977 20.8121 47.7845C20.7898 47.7022 20.7668 47.6204 20.7509 47.5327C20.6733 47.1044 20.7645 46.7296 20.828 46.479Z" fill="#00AC6C"/>
<path d="M18.7163 31.1775C18.7569 31.2758 18.824 31.3958 18.8952 31.5288C19.0034 31.7218 19.1276 31.9412 19.2305 32.1983C19.3906 32.6173 19.3612 33.0115 19.3429 33.2768C19.3406 33.3174 19.3347 33.3692 19.3341 33.408L19.4565 33.7257C19.5347 33.9276 19.6148 34.1335 19.6924 34.3524C19.726 34.443 19.7877 34.5636 19.8507 34.6907C19.9472 34.886 20.0572 35.1025 20.146 35.362C20.1378 35.3461 20.1349 35.3373 20.1349 35.3373C20.1543 35.3679 20.2161 35.4561 20.2584 35.5197C20.4043 35.7191 20.6014 35.9915 20.7174 36.3522C20.7591 36.4822 20.815 36.6223 20.8709 36.7758C20.9503 36.9776 21.0292 37.1847 21.0986 37.4136C21.2116 37.7849 21.1974 38.132 21.1898 38.388C21.1839 38.4586 21.1839 38.5539 21.1839 38.598C21.2198 38.7086 21.2651 38.8351 21.3157 38.9681C21.3887 39.1558 21.4681 39.3658 21.5328 39.5994L21.7511 40.419L21.8123 40.6537C21.837 40.7485 21.8852 40.8738 21.9406 41.0068C22.0194 41.2062 22.1094 41.4327 22.1765 41.6928C22.233 41.9299 22.2659 42.1582 22.2977 42.3594C22.3201 42.5142 22.3412 42.6624 22.3713 42.786C22.4383 43.0749 22.4495 43.3473 22.4577 43.5662C22.4607 43.6956 22.4695 43.8274 22.486 43.9027C22.5154 44.0298 22.5589 44.1704 22.6037 44.3228C22.6607 44.5105 22.7249 44.7229 22.776 44.9506C22.7902 44.9859 22.8337 45.0641 22.8666 45.1212C22.9867 45.3301 23.1514 45.6154 23.2232 45.9849C23.3109 46.4144 23.215 46.7992 23.1526 47.0493C23.1414 47.0857 23.1332 47.1287 23.1244 47.1675C23.1467 47.2429 23.1732 47.337 23.2067 47.437C23.2632 47.6 23.3179 47.7847 23.3626 47.9877C23.4238 47.9901 23.4762 47.9954 23.5321 47.9954C30.6284 48.1336 37.0616 45.1777 41.5455 40.3713C33.216 33.9693 22.9867 31.7265 18.6457 31.0251C18.6722 31.0757 18.6946 31.1263 18.7163 31.1775Z" fill="#005BAB"/>
<path d="M47.8639 24.4736C47.8981 22.652 47.7227 20.8751 47.3703 19.1636C47.222 19.1889 47.0708 19.213 46.9243 19.2395C46.5131 19.3142 46.1477 19.5819 45.7564 19.6596C45.3552 19.7413 44.9721 19.8643 44.5862 19.9526C44.1614 20.0514 43.7313 20.0667 43.3259 20.1732C42.9129 20.2768 42.471 20.2426 42.0762 20.3544C41.6767 20.4709 41.3413 20.7816 40.963 20.904C40.5447 21.0381 40.1052 21.0711 39.7116 21.2111C39.3085 21.3535 38.8508 21.3329 38.4707 21.4817C38.0853 21.6353 37.77 21.9436 37.4093 22.1007C37.0104 22.2707 36.5673 22.3196 36.2008 22.4937C35.7942 22.6867 35.4948 23.0556 35.1276 23.2504C34.7464 23.4492 34.3663 23.6128 34.0226 23.8146C33.6449 24.0347 33.2348 24.1706 32.9006 24.3859C32.5294 24.6236 32.2723 24.9866 31.951 25.2149C31.5809 25.4803 31.3032 25.8168 30.9943 26.0633C30.6366 26.3528 30.2 26.487 29.9217 26.7441C29.6399 26.9994 29.334 27.1765 29.0957 27.3654L28.5597 28.2279C28.4479 28.6339 28.4479 28.9328 28.2755 28.6827L27.117 30.5443C31.9787 32.0317 37.8023 34.4852 42.9793 38.5161C45.9506 34.6064 47.7604 29.7577 47.8639 24.4736Z" fill="#FAA619"/>
<path d="M61.58 12.8H55.7V9.96H65.04V11.44H67.54V9.74H71.04V20.44H67.54V18.42H64.5V15.64H67.54V14.22H64.8C63.94 18.14 60.86 20.12 55.28 20.48V17.6C59.58 17.24 61.5 15.7 61.58 12.8ZM56.54 24.74C56.54 23.54 57.1 22.62 58 21.98C59.38 21 61.56 20.6 64 20.6C66.42 20.6 68.62 21 69.98 21.98C70.9 22.62 71.46 23.54 71.46 24.74C71.46 25.96 70.9 26.88 69.98 27.52C68.62 28.52 66.42 28.9 64 28.9C61.56 28.9 59.38 28.52 58 27.52C57.1 26.88 56.54 25.96 56.54 24.74ZM59.98 24.74C59.98 25.08 60.16 25.32 60.46 25.54C61.1 25.94 62.38 26.1 64 26.1C65.62 26.1 66.88 25.94 67.52 25.54C67.84 25.32 67.98 25.08 67.98 24.74C67.98 24.42 67.84 24.2 67.52 23.98C66.88 23.58 65.62 23.4 64 23.4C62.38 23.4 61.1 23.58 60.46 23.98C60.16 24.2 59.98 24.42 59.98 24.74ZM82.5992 19.22H74.6792V9.86H78.1592V16.38H83.0792C84.6792 16.38 85.5992 16.2 86.2792 15.72V9.74H89.7792V13.6H92.2392V16.5H89.7792V20.22H86.2792V18.46C85.5992 18.98 84.4392 19.22 82.5992 19.22ZM89.7792 28.66H75.6592V20.94H89.7792V28.66ZM86.2992 25.92V23.74H79.0992V25.92H86.2992ZM107.896 17.22C106.456 19.1 103.296 20.78 99.9364 21.24V18.3C103.876 17.44 106.136 15.38 106.136 11.26V9.96H109.636V11.26C109.636 15.3 111.856 17.42 115.876 18.3V21.24C112.616 20.78 109.336 19.1 107.896 17.22ZM116.276 27.7H99.5564V24.8H116.276V27.7ZM128.776 10.06V27.28H119.216V10.06H128.776ZM122.656 24.42H125.336V12.96H122.656V24.42ZM130.596 9.74H134.096V16.96H136.676V19.88H134.096V28.48H130.596V9.74ZM153.775 10.06V12.94H142.355V14.88H153.575V17.72H142.355V19.7H153.995V22.56H138.855V10.06H153.775ZM154.675 27.7H137.955V24.8H154.675V27.7ZM162.434 23.92C161.514 25.58 159.334 26.96 157.014 27.4V24.36C159.194 23.48 160.694 21.98 160.694 16.76V9.96H164.194V16.76C164.194 21.98 165.654 23.44 167.854 24.36V27.4C165.554 26.98 163.454 25.56 162.434 23.92ZM169.434 9.74H172.934V28.48H169.434V9.74ZM186.273 20.04H180.393V24.42H185.553C187.073 24.42 188.013 24.22 188.633 23.66V9.74H192.133V28.48H188.633V26.42C187.993 27.04 186.893 27.28 185.153 27.28H176.933V10.06H186.493V12.96H180.393V17.18H186.273V20.04Z" fill="#5B2A8C"/>
<path d="M206.32 14.34V12.78H199.76V9.96H209.7V14.12C209.7 15.18 209.62 16.3 209.4 17.44H206.04C206.24 16.26 206.32 15.2 206.32 14.34ZM207.54 21.4H199.1V18.6H201.46V14.6H204.84V18.6H208.02C209.56 18.6 210.44 18.44 211.08 17.98V9.74H214.58V14.9H217.06V17.78H214.58V23.28H211.08V20.7C210.4 21.24 209.38 21.4 207.54 21.4ZM214.84 25.9V28.66H200.46V22.46H203.96V25.9H214.84ZM227.239 27.3H219.019V17.18H224.899V12.96H219.019V10.06H228.359V20.04H222.479V24.42H227.639C229.159 24.42 230.099 24.22 230.719 23.66V9.74H234.219V28.48H230.719V26.42C230.079 27.06 228.979 27.3 227.239 27.3ZM250.838 18.12H253.758V21H247.758V24.84H254.358V27.7H237.638V24.84H244.258V21H238.238V18.12H240.778V12.96H238.538V10.06H253.458V12.96H251.198V15.38C251.198 16.4 251.098 17.44 250.838 18.12ZM247.738 12.96H244.258V18.12H247.418C247.638 17.5 247.738 16.48 247.738 15.54V12.96ZM266.098 15.72H260.658V16.74H264.918C266.058 16.74 267.078 16.74 267.958 16.5V18.82C267.098 19.1 266.018 19.16 264.818 19.16H257.298V9.96H266.498V12.36H260.658V13.32H266.098V15.72ZM269.138 15.76H266.698V12.84H269.138V9.74H272.638V19.52H269.138V15.76ZM272.638 25.6H261.798V26.34H272.838V28.66H258.338V23.24H269.158V22.52H258.338V20.14H272.638V25.6Z" fill="#D74464"/>
<path d="M53.475 37.2665C53.475 35.2525 54.0355 33.419 56.3725 33.419C58.092 33.419 59.099 34.483 59.1845 36.022H58.0825C58.016 35.015 57.427 34.388 56.3725 34.388C54.938 34.388 54.577 35.4995 54.577 37.2665C54.577 39.3945 55.1565 40.1545 56.3725 40.1545C57.4365 40.1545 58.092 39.442 58.092 38.3305V38.055H56.42V37.105H59.175V40.9905H58.3675L58.1965 40.05C57.9305 40.658 57.237 41.114 56.2965 41.114C54.0545 41.114 53.475 39.233 53.475 37.2665ZM62.528 37.0385L64.3995 33.5425H65.5585L63.0885 38.055V40.9905H61.977V38.055L59.507 33.5425H60.6565L62.528 37.0385ZM66.375 40.9905V33.5425H70.783V34.502H67.477V36.6965H70.403V37.656H67.477V40.031H70.84V40.9905H66.375ZM74.621 41.114C72.265 41.114 71.7235 39.2615 71.7235 37.2665C71.7235 35.281 72.2745 33.419 74.621 33.419C76.9295 33.419 77.509 35.2715 77.509 37.2665C77.509 39.271 76.939 41.114 74.621 41.114ZM74.621 40.1545C76.008 40.1545 76.407 39.0715 76.407 37.2665C76.407 35.4995 76.0175 34.388 74.621 34.388C73.2055 34.388 72.8255 35.4995 72.8255 37.2665C72.8255 39.062 73.215 40.1545 74.621 40.1545ZM83.9119 40.9905H82.7814L79.7414 35.509V40.9905H78.6394V33.5425H79.7699L82.8099 39.0335V33.5425H83.9119V40.9905ZM85.0551 37.2665C85.0551 35.2525 85.6156 33.419 87.9526 33.419C89.6721 33.419 90.6791 34.483 90.7646 36.022H89.6626C89.5961 35.015 89.0071 34.388 87.9526 34.388C86.5181 34.388 86.1571 35.4995 86.1571 37.2665C86.1571 39.3945 86.7366 40.1545 87.9526 40.1545C89.0166 40.1545 89.6721 39.442 89.6721 38.3305V38.055H88.0001V37.105H90.7551V40.9905H89.9476L89.7766 40.05C89.5106 40.658 88.8171 41.114 87.8766 41.114C85.6346 41.114 85.0551 39.233 85.0551 37.2665ZM97.2898 40.9905H96.1593L93.1193 35.509V40.9905H92.0173V33.5425H93.1478L96.1878 39.0335V33.5425H97.2898V40.9905ZM104.323 40.9905H103.183L102.661 39.3375H99.7155L99.193 40.9905H98.053L100.533 33.5425H101.834L104.323 40.9905ZM102.357 38.378L101.188 34.635L100.01 38.378H102.357ZM109.317 40.9905H108.262L106.182 35.7845V40.9905H105.089V33.5425H106.305L108.785 39.7365L111.264 33.5425H112.49V40.9905H111.388V35.7845L109.317 40.9905ZM121.534 38.929C121.534 40.202 120.574 41.114 118.959 41.114C117.354 41.114 116.385 40.202 116.385 38.929V38.777H117.496V38.948C117.496 39.67 118.047 40.164 118.959 40.164C119.881 40.164 120.422 39.67 120.422 38.948C120.422 38.34 120.052 37.9125 119.244 37.7415L118.285 37.542C117.107 37.295 116.385 36.649 116.385 35.49C116.385 34.3595 117.23 33.419 118.817 33.419C120.422 33.419 121.258 34.3595 121.258 35.49V35.604H120.147V35.49C120.147 34.8345 119.681 34.3785 118.817 34.3785C117.962 34.3785 117.496 34.8345 117.496 35.49C117.496 36.117 117.867 36.44 118.636 36.6015L119.596 36.801C120.84 37.067 121.534 37.77 121.534 38.929ZM126.814 40.9905H125.759L123.679 35.7845V40.9905H122.586V33.5425H123.802L126.282 39.7365L128.761 33.5425H129.987V40.9905H128.885V35.7845L126.814 40.9905ZM137.007 40.9905H135.867L135.345 39.3375H132.4L131.877 40.9905H130.737L133.217 33.5425H134.518L137.007 40.9905ZM135.041 38.378L133.872 34.635L132.694 38.378H135.041ZM141.849 40.335L141.801 39.442C141.744 38.53 141.412 38.1785 140.405 38.1785H138.875V40.9905H137.773V33.5425H140.671C142.219 33.5425 143.017 34.369 143.017 35.7845C143.017 36.7725 142.59 37.4375 141.735 37.6845C142.476 37.8175 142.818 38.2925 142.884 39.271L142.951 40.183C142.97 40.5155 143.017 40.791 143.084 40.9905H141.963C141.906 40.8195 141.868 40.601 141.849 40.335ZM138.875 37.219H140.5C141.383 37.219 141.915 36.82 141.915 35.8605C141.915 34.901 141.383 34.502 140.5 34.502H138.875V37.219ZM143.467 34.502V33.5425H148.768V34.502H146.668V40.9905H145.566V34.502H143.467ZM153.251 37.2665C153.251 39.062 153.64 40.1545 155.046 40.1545C156.101 40.1545 156.69 39.5275 156.756 38.5205H157.858C157.773 40.0595 156.766 41.114 155.046 41.114C152.69 41.114 152.149 39.2615 152.149 37.2665C152.149 35.281 152.7 33.419 155.046 33.419C156.766 33.419 157.773 34.483 157.858 36.022H156.756C156.69 35.015 156.101 34.388 155.046 34.388C153.631 34.388 153.251 35.4995 153.251 37.2665ZM160.056 33.5425V40.9905H158.954V33.5425H160.056ZM160.852 34.502V33.5425H166.153V34.502H164.054V40.9905H162.952V34.502H160.852ZM169.468 37.0385L171.339 33.5425H172.498L170.028 38.055V40.9905H168.917V38.055L166.447 33.5425H167.596L169.468 37.0385ZM180.307 40.9905H179.253L177.172 35.7845V40.9905H176.08V33.5425H177.296L179.775 39.7365L182.255 33.5425H183.48V40.9905H182.378V35.7845L180.307 40.9905ZM190.5 40.9905H189.36L188.838 39.3375H185.893L185.37 40.9905H184.23L186.71 33.5425H188.011L190.5 40.9905ZM188.534 38.378L187.365 34.635L186.187 38.378H188.534ZM196.53 40.9905H195.399L192.359 35.509V40.9905H191.257V33.5425H192.388L195.428 39.0335V33.5425H196.53V40.9905ZM203.563 40.9905H202.423L201.9 39.3375H198.955L198.433 40.9905H197.293L199.772 33.5425H201.074L203.563 40.9905ZM201.596 38.378L200.428 34.635L199.25 38.378H201.596ZM204 37.2665C204 35.2525 204.56 33.419 206.897 33.419C208.617 33.419 209.624 34.483 209.709 36.022H208.607C208.541 35.015 207.952 34.388 206.897 34.388C205.463 34.388 205.102 35.4995 205.102 37.2665C205.102 39.3945 205.681 40.1545 206.897 40.1545C207.961 40.1545 208.617 39.442 208.617 38.3305V38.055H206.945V37.105H209.7V40.9905H208.892L208.721 40.05C208.455 40.658 207.762 41.114 206.821 41.114C204.579 41.114 204 39.233 204 37.2665ZM210.972 40.9905V33.5425H215.38V34.502H212.074V36.6965H215V37.656H212.074V40.031H215.437V40.9905H210.972ZM220.738 40.9905H219.683L217.603 35.7845V40.9905H216.51V33.5425H217.726L220.206 39.7365L222.685 33.5425H223.911V40.9905H222.809V35.7845L220.738 40.9905ZM225.231 40.9905V33.5425H229.639V34.502H226.333V36.6965H229.259V37.656H226.333V40.031H229.696V40.9905H225.231ZM236.032 40.9905H234.902L231.862 35.509V40.9905H230.76V33.5425H231.89L234.93 39.0335V33.5425H236.032V40.9905ZM236.843 34.502V33.5425H242.144V34.502H240.045V40.9905H238.943V34.502H236.843ZM246.817 37.238H248.47C249.392 37.238 249.857 36.7345 249.857 35.87C249.857 35.0055 249.392 34.502 248.47 34.502H246.817V37.238ZM248.613 38.1975H246.817V40.9905H245.715V33.5425H248.613C250.095 33.5425 250.959 34.407 250.959 35.87C250.959 37.352 250.095 38.1975 248.613 38.1975ZM254.62 41.114C252.264 41.114 251.723 39.2615 251.723 37.2665C251.723 35.281 252.274 33.419 254.62 33.419C256.929 33.419 257.508 35.2715 257.508 37.2665C257.508 39.271 256.938 41.114 254.62 41.114ZM254.62 40.1545C256.007 40.1545 256.406 39.0715 256.406 37.2665C256.406 35.4995 256.017 34.388 254.62 34.388C253.205 34.388 252.825 35.4995 252.825 37.2665C252.825 39.062 253.214 40.1545 254.62 40.1545ZM262.723 40.335L262.676 39.442C262.619 38.53 262.286 38.1785 261.279 38.1785H259.75V40.9905H258.648V33.5425H261.545C263.094 33.5425 263.892 34.369 263.892 35.7845C263.892 36.7725 263.464 37.4375 262.609 37.6845C263.35 37.8175 263.692 38.2925 263.759 39.271L263.825 40.183C263.844 40.5155 263.892 40.791 263.958 40.9905H262.837C262.78 40.8195 262.742 40.601 262.723 40.335ZM259.75 37.219H261.374C262.258 37.219 262.79 36.82 262.79 35.8605C262.79 34.901 262.258 34.502 261.374 34.502H259.75V37.219ZM264.341 34.502V33.5425H269.642V34.502H267.543V40.9905H266.441V34.502H264.341ZM275.629 40.9905H274.489L273.967 39.3375H271.022L270.499 40.9905H269.359L271.839 33.5425H273.14L275.629 40.9905ZM273.663 38.378L272.494 34.635L271.316 38.378H273.663ZM276.395 40.9905V33.5425H277.497V40.031H280.86V40.9905H276.395Z" fill="#AB89CE"/>
</g>
<defs>
<clipPath id="clip0_130_24">
<rect width="284" height="48" fill="white"/>
</clipPath>
</defs>
</svg>
